<?xml version="1.0" encoding="UTF-8" standalone="no"?>
<!-- Created with Inkscape (http://www.inkscape.org/) -->

<svg
   xmlns:dc="http://purl.org/dc/elements/1.1/"
   xmlns:cc="http://creativecommons.org/ns#"
   xmlns:rdf="http://www.w3.org/1999/02/22-rdf-syntax-ns#"
   xmlns:svg="http://www.w3.org/2000/svg"
   xmlns="http://www.w3.org/2000/svg"
   xmlns:sodipodi="http://sodipodi.sourceforge.net/DTD/sodipodi-0.dtd"
   xmlns:inkscape="http://www.inkscape.org/namespaces/inkscape"
   id="svg2"
   version="1.1"
   inkscape:version="0.48.3.1 r9886"
   width="496"
   height="724"
   sodipodi:docname="COA Bilohorodka, Kyivska, Ukraine.svg"
   inkscape:export-filename="/home/hp/Робочий стіл/Bilohorodka.png"
   inkscape:export-xdpi="90"
   inkscape:export-ydpi="90">
  <metadata
     id="metadata8">
    <rdf:RDF>
      <cc:Work
         rdf:about="">
        <dc:format>image/svg+xml</dc:format>
        <dc:type
           rdf:resource="http://purl.org/dc/dcmitype/StillImage" />
        <dc:title />
      </cc:Work>
    </rdf:RDF>
  </metadata>
  <defs
     id="defs6" />
  <sodipodi:namedview
     pagecolor="#ffffff"
     bordercolor="#666666"
     borderopacity="1"
     objecttolerance="10"
     gridtolerance="10"
     guidetolerance="10"
     inkscape:pageopacity="0"
     inkscape:pageshadow="2"
     inkscape:window-width="1615"
     inkscape:window-height="1026"
     id="namedview4"
     showgrid="true"
     inkscape:zoom="1.24"
     inkscape:cx="179.37165"
     inkscape:cy="427.35563"
     inkscape:window-x="65"
     inkscape:window-y="24"
     inkscape:window-maximized="1"
     inkscape:current-layer="svg2"
     inkscape:snap-nodes="false"
     fit-margin-top="0"
     fit-margin-left="0"
     fit-margin-right="0"
     fit-margin-bottom="0">
    <inkscape:grid
       type="xygrid"
       id="grid3006"
       empspacing="2"
       visible="true"
       enabled="true"
       snapvisiblegridlinesonly="true"
       originx="-6px"
       originy="-5px" />
  </sodipodi:namedview>
  <path
     sodipodi:nodetypes="cccccccccccccccccccccc"
     inkscape:connector-curvature="0"
     id="path3067"
     d="M 0,0 0,441 C 0,597 154.84584,689.38648 248,724 339.47631,688.69324 496,597 496,441 L 495.9049,0 424.8,0 l 0,47.8 -34.9,0 0,-47.8 -71.4,0 0,47.8 -34.7,0 0,-47.8 -72.2307,0 0,47.8 -34.0693,0 0,-47.8 -72,0 0,47.8 -34,0 0,-47.8 z"
     style="fill:#000000;fill-opacity:1;stroke:none" />
  <path
     style="fill:#ffd500;fill-opacity:1;stroke:none"
     d="M 3,3 3,441 C 3,597 157,685 248,721 337,685 493,597 493,441 l -0.0937,-438 -65,0 0,48 -41.21875,0 0,-48 -65,0 0,48 -41.25,0 0,-48 -65,0 0,48 -41.21875,0 0,-48 -65,0 0,48 L 68,51 68,3 3,3 z m 268.78125,67.4375 c 8.20338,0.04222 17.81735,4.337538 17.84375,16.125 0.0445,19.85257 -17.51245,8.32424 -19.25,12.34375 l 0.0625,16.65625 5.03125,3.09375 -20.1875,0 5.125,-3.5625 0.0625,-39.8125 c 0.76747,-2.911178 5.69966,-4.87264 11.3125,-4.84375 z M 158.3125,70.96875 c 5.42815,0.0015 16.61188,12.37864 16.71875,23.65625 0.10687,11.27762 -10.26256,23.72745 -16,23.8125 -5.73744,0.085 -17.9773,-9.75277 -17.96875,-21.96875 0.009,-12.21599 11.82185,-25.50151 17.25,-25.5 z m 75.40625,0 c 5.42815,0.0015 16.61188,12.37864 16.71875,23.65625 0.10687,11.27762 -10.26256,23.7275 -16,23.8125 -5.73744,0.085 -17.97775,-9.75277 -17.96875,-21.96875 0.009,-12.21599 11.82185,-25.5015 17.25,-25.5 z m 78.40625,0 c 5.42815,0.0015 16.61188,12.37864 16.71875,23.65625 0.10687,11.27762 -10.26256,23.7275 -16,23.8125 -5.73744,0.085 -17.97775,-9.75277 -17.96875,-21.96875 0.009,-12.21599 11.82185,-25.5015 17.25,-25.5 z M 70.46875,71.875 66.5625,85.5625 62.09375,74.625 52.125,74.65625 l 0,15.15625 c 2.88615,3.67328 18.197818,7.11638 19.8125,14.53125 1.614682,7.41487 -0.407477,14.5 -3.03125,14.5 l -31.34375,0 4.78125,-3.375 0.0625,-40.4375 L 37.28125,72 70.46875,71.875 z m 6.5625,0.1875 20.03125,0 -5.0625,3.09375 0.125,40.40625 5.0625,3.09375 -20.21875,0 5.125,-3.5625 0.0625,-39.8125 -5.125,-3.21875 z m 33.53125,0 19.875,0 -5.0625,2.96875 8.21875,40.0625 4.59375,3.03125 -18.8125,0.0625 4.34375,-2.875 -7.3125,-35.375 c -12.81422,16.9879 0.8037,38.2853 -5,38.375 l -9.375,0.0625 c -3.37827,-15.28479 6.63173,-27.84048 13.65625,-43.15625 l -5.125,-3.15625 z m 69.59375,0 33.5,0 -4.40625,13.5 -4.53125,-10.4375 -9.625,0.03125 0.125,40.40625 5.0625,3.09375 -20.21875,0 5.125,-3.5625 0.0625,-39.8125 -5.09375,-3.21875 z m 195.28125,0 19.625,0 -4.65625,3.09375 0.0625,18.03125 c 5.19643,-1.26288 7.30553,-20.461998 12.6875,-20.875 11.06795,-0.849334 9.96083,8.0574 6.78125,10.03125 -3.17959,1.97385 -6.88211,-8.955142 -14.6875,12.21875 5.97983,1.20983 13.13491,13.40917 14.8125,20.96875 l 4.28125,3.1875 -17.3125,-0.0313 5.03125,-3.125 C 401.9931,100.88031 392.59617,96.04969 390.46875,96.5937 l 0.0625,18.96875 5.0625,3.09375 -20.21875,0 5.125,-3.5625 0.0625,-39.8125 -5.125,-3.21875 z m 53.4375,0 19.875,0 -5.0625,2.96875 8.1875,40.0625 4.59375,3.03125 -18.78125,0.0625 4.34375,-2.875 -2.65625,-12.84375 c -3.04144,7.23474 -8.38537,18.76789 -17.28125,15.4375 -8.89588,-3.33039 -1.12306,-22.53192 11.875,-42.6875 L 428.875,72.0625 z M 341,72.28125 l 21.125,0 -5.25,3.28125 8.4375,38.71875 7.6875,0.0313 -4.375,14.25 -3.3125,-10.65625 -27.5625,0 -3.1875,10.375 -4.8125,-14.0625 7.84375,0 c -7.08978,-9.5575 10.47752,-28.61714 9.125,-38.65625 L 341,72.28125 z M 270.375,74.5 l 0,19.40625 c 17.99799,7.23056 10.25507,-18.326026 0,-19.40625 z m -116.96875,3.8125 c -14.31202,12.06793 -0.52346,22.99878 9.15625,34.21875 12.63599,-9.65546 4.12641,-19.37204 -9.15625,-34.21875 z m 75.40625,0 c -14.31202,12.06793 -0.52346,22.99878 9.15625,34.21875 12.63599,-9.65546 4.12641,-19.37204 -9.15625,-34.21875 z m 78.40625,0 c -14.31202,12.06793 -0.52346,22.99878 9.15625,34.21875 12.63599,-9.65546 4.12641,-19.37204 -9.15625,-34.21875 z m 127.46875,1.625 c -17.37259,27.84692 -9.64035,45.57178 3.5,16.90625 l -3.5,-16.90625 z M 349.46875,84 c -4.98752,13.68798 -12.67796,24.48533 -6.875,30.15625 l 13.75,0 L 349.46875,84 z M 52.125,94.5 l 0.0625,21.59375 8.53125,-0.0625 C 66.316196,116.00375 67.018989,98.89309 52.125,94.5 z"
     id="rect3020"
     inkscape:connector-curvature="0" />
  <g
     id="g3007"
     transform="translate(7.2963649,0)" />
  <g
     id="g3014">
    <path
       sodipodi:nodetypes="cczzzccczzczc"
       inkscape:connector-curvature="0"
       id="path3043"
       d="m 53,569 c 13,18 27,35 39,44 26,8 56,-16 86,-16 30,0 44,16 70,16 26,0 40,-16 68,-16 28,0 62,25 88,15 15.5893,-14.8214 24,-24 38,-44 -18,-4 -54,28 -100,2 -7.59478,5.37914 -15.96632,16.86529 -30,19 -14.03368,2.13471 -96,6 -118,0 -22,-6 -30,-20 -30,-20 -20,0 -30,16 -56,16 -26,0 -33,-16 -55,-16 z"
       style="fill:#005bb2;stroke:none" />
    <path
       sodipodi:nodetypes="cczzzcczzzc"
       inkscape:connector-curvature="0"
       id="path2985"
       d="m 102,623 c 11.77943,9.66914 22,17 32,24 16,0 26,-13 46,-13 20,0 44.59475,16.99525 68,17 23.40525,0.005 48.26603,-18.55628 68,-18 19.73397,0.55628 30,14 46,14 10,-6 20,-15 30,-24 -27,1 -50,-16 -76,-16 -26,0 -42,16 -68,16 -26,0 -42,-16 -68,-16 -26,0 -44,16 -78,16 z"
       style="fill:#005bb2;stroke:none" />
    <path
       sodipodi:nodetypes="cczcczzzc"
       inkscape:connector-curvature="0"
       id="path2987"
       d="m 144,655 34.617,21.1 c 15.95324,-1.63879 47.83398,11.5098 69.383,12 21.54902,0.4902 56.83694,-13.86287 70.79902,-12 L 352,655 c -7,0 -17.76947,-10.70189 -36,-11 -18.23053,-0.29811 -44.87474,18.25991 -68,18 -23.12526,-0.25991 -49.4145,-17.97972 -67,-18 -17.5855,-0.0203 -23,8 -37,11 z"
       style="fill:#005bb2;stroke:none" />
    <path
       sodipodi:nodetypes="ccczc"
       inkscape:connector-curvature="0"
       id="path2989"
       d="M 196.88041,687.61352 248,710.5 299.46621,687.52686 C 285.46621,687.52686 268,698.1 248,698.1 c -20,0 -37.2929,-10.48648 -51.11959,-10.48648 z"
       style="fill:#005bb2;stroke:none" />
    <path
       id="path3002"
       d="M 12 134 L 12 441 C 12.306758 488 26.159452 527.54594 49 561 C 76 561 88 576 108 576 C 128 576 139 564 159 560 C 148 539 162 507 190 471 C 218 435 223 397 205 403 C 204 407 202 415 188 421 C 172.71377 466.30283 170.96831 449.97182 172 421 C 160 415 162 399 171 386 L 153.8125 374.40625 C 142.50896 374.08002 156.03772 359.53542 157 370 L 171.625 381.5625 C 172.29888 379.84839 173.22886 378.3981 174.25 377.03125 L 162.53125 363.6875 C 153.04338 362.86303 166.0648 350.29959 167 360 L 177.40625 373.71875 C 178.5236 372.30986 179.67553 371.46239 181.59375 370.875 L 175 355 C 165.08852 351.72068 182.94747 343.23477 180.46875 352.8125 L 186 370 C 187.74835 369.75264 189.05223 369.87708 190.28125 370.0625 L 188.625 350.4375 C 179.05003 342.95812 200.95811 341.09542 194 350 L 196 373 C 218 368 268 393 220 483 C 284 419 304 389 310 389 C 316 389 316 399 315 410 C 322 403 326 407 324 421 C 333 415 331 432 333 440 C 337 437 346 458 336 465 C 342 479 345 483 336 488 C 338 521 328 517 306 540 C 321 561 347 540 369 537 C 384 541 356 551 350 563 C 386 585 416 557 449 557 C 477.30676 508.57365 483 478.30676 483 441 L 483 134 L 12 134 z M 157.90625 204.375 C 171.28787 204.2907 186.74484 217.9791 186.96875 239.0625 C 187.19266 260.1459 148.8125 289.3125 148.8125 289.3125 L 142.5 283.875 C 142.5 283.875 172.0845 260.48137 171.8125 243.875 C 171.5405 227.26863 151.24268 211.82605 144.28125 220.84375 C 137.31983 229.86145 151.04917 249.74833 168.21875 247.03125 C 164.43236 256.17827 158.33931 261.69577 154.1875 263.8125 C 149.33352 262.10705 132.81554 253.52465 132.65625 237.25 C 132.49696 220.97535 147.80215 204.43862 157.90625 204.375 z M 336 204.375 C 345.88734 204.49459 363.10698 224.32586 363.3125 246.59375 C 363.51802 268.86164 349.61996 290.4547 340.53125 290.375 C 331.44254 290.2953 308.88525 269.44427 308.90625 247.34375 C 308.92725 225.24323 326.11266 204.2554 336 204.375 z M 251.875 204.46875 C 263.61786 204.39475 286.55138 226.139 265.625 244.625 C 297.3583 266.09265 260.78579 290.3865 251.28125 290.125 C 241.77671 289.8635 204.66284 265.82581 234.375 245.78125 C 213.43649 226.25984 240.13214 204.54275 251.875 204.46875 z M 243.34375 216.25 C 240.83781 216.3355 238.52661 217.24452 236.75 219.3125 C 230.43315 226.66531 253.38447 235.44516 262.09375 241.78125 C 262.09375 241.78125 265.70372 234.15809 260.90625 226.65625 C 257.45808 221.26431 249.74783 216.03162 243.34375 216.25 z M 326.9375 217.875 C 302.80353 244.61192 338.5847 269.52096 348.125 277.5625 C 367.67245 248.50698 338.73526 228.09854 326.9375 217.875 z M 238.5 249.28125 C 238.5 249.28125 233.216 259.12449 240.4375 267.09375 C 247.659 275.06301 260.48014 281.41629 267.0625 275.53125 C 274.44634 268.92964 249.62116 258.40027 238.5 249.28125 z "
       style="fill:#f2016c;stroke:none;fill-opacity:1" />
    <path
       inkscape:connector-curvature="0"
       id="path2993"
       d="m 198.8125,374.96875 c -0.91622,-0.008 -1.85938,0 -2.8125,0.0313 -4,5 -10.20141,10.77525 -24,13 -6,11 -10,23 1,31 8.00455,2.6947 11.30439,1.08927 15,0 7.95819,-4.63468 13.4651,-10.40072 15,-18 25,-9 15,36 -5,64 -20,28 -69,83 -15,117 21.20653,13.35226 107,6 126,5 19,-1 36,-28 54,-40 18,-12 0,-8 -21,1 -14.84924,6.36396 -33,4 -38,-6 -11,7 -19,16 -34,29 14,-16 29.48595,-28.73735 42,-40 12.51405,-11.26265 24,-14 22,-40 -9,8 -16,14 -22,18 31,-30 32,-24 22,-42 -12,10 -18,14 -28,19 41,-28 35,-30 28,-45 l -38,32 c 9,-10.34406 26,-24 36,-32 -3,-5 -1,-24 -7,-18 l -35,34 c 8,-10 14,-16 32,-34 0.43154,-8.81546 -0.20528,-13.59487 -2,-14 -7,3 -14,11 -24,20 4,-5 8,-10 16,-17 5,-39 -9.46761,-12.41008 -44,25 -24,26 -55,57 -64,68 37.40625,-51.1875 52.53422,-129.50397 -5.1875,-130.03125 z M 179,403 c 1.65685,0 3,1.79086 3,4 0,2.20914 -1.34315,4 -3,4 -1.65685,0 -3,-1.79086 -3,-4 0,-2.20914 1.34315,-4 3,-4 z"
       style="fill:#ffffff;stroke:none" />
  </g>
</svg>
